<svg width="19" height="19" viewBox="0 0 19 19" fill="none" xmlns="http://www.w3.org/2000/svg">
<mask id="mask0_3_101" style="mask-type:alpha" maskUnits="userSpaceOnUse" x="0" y="0" width="19" height="19">
<rect width="19" height="19" fill="#D9D9D9"/>
</mask>
<g mask="url(#mask0_3_101)">
<path d="M7.73854 9.49999C7.26354 9.49999 6.86771 9.32187 6.55104 8.96562C6.23437 8.60936 6.10903 8.19374 6.175 7.71874L6.43229 5.77916C6.53784 5.02707 6.8809 4.40364 7.46146 3.90884C8.04201 3.41405 8.72153 3.16666 9.5 3.16666C10.2785 3.16666 10.958 3.41405 11.5385 3.90884C12.1191 4.40364 12.4622 5.02707 12.5677 5.77916L12.825 7.71874C12.891 8.19374 12.7656 8.60936 12.449 8.96562C12.1323 9.32187 11.7365 9.49999 11.2615 9.49999H7.73854ZM7.73854 7.91666H11.2615L11.0042 6.01666C10.9514 5.64721 10.7832 5.34374 10.4995 5.10624C10.2158 4.86874 9.88264 4.74999 9.5 4.74999C9.11736 4.74999 8.7842 4.86874 8.50052 5.10624C8.21684 5.34374 8.04861 5.64721 7.99583 6.01666L7.73854 7.91666ZM3.16666 15.8333V13.6167C3.16666 13.168 3.28212 12.7557 3.51302 12.3797C3.74392 12.0036 4.05069 11.7167 4.43333 11.5187C5.25139 11.1097 6.08264 10.8029 6.92708 10.5984C7.77153 10.3939 8.62916 10.2917 9.5 10.2917C10.3708 10.2917 11.2285 10.3939 12.0729 10.5984C12.9174 10.8029 13.7486 11.1097 14.5667 11.5187C14.9493 11.7167 15.2561 12.0036 15.487 12.3797C15.7179 12.7557 15.8333 13.168 15.8333 13.6167V15.8333H3.16666ZM4.75 14.25H14.25V13.6167C14.25 13.4715 14.2137 13.3396 14.1411 13.2208C14.0686 13.1021 13.9729 13.0097 13.8542 12.9437C13.1417 12.5875 12.4226 12.3203 11.6969 12.1422C10.9712 11.9641 10.2389 11.875 9.5 11.875C8.76111 11.875 8.02882 11.9641 7.30312 12.1422C6.57743 12.3203 5.85833 12.5875 5.14583 12.9437C5.02708 13.0097 4.93142 13.1021 4.85885 13.2208C4.78628 13.3396 4.75 13.4715 4.75 13.6167V14.25Z" fill="#6755A7"/>
</g>
</svg>
