<svg width="32" height="32" viewBox="0 0 32 32" fill="none" xmlns="http://www.w3.org/2000/svg">
<mask id="mask0_6_152" style="mask-type:alpha" maskUnits="userSpaceOnUse" x="0" y="0" width="32" height="32">
<rect width="31.6736" height="31.6736" fill="#D9D9D9"/>
</mask>
<g mask="url(#mask0_6_152)">
<path d="M18.4763 13.0654V10.8218C19.2021 10.5139 19.9445 10.2829 20.7033 10.1289C21.4622 9.97498 22.2595 9.89799 23.0953 9.89799C23.6672 9.89799 24.2281 9.94199 24.778 10.03C25.3279 10.1179 25.8668 10.2279 26.3947 10.3599V12.4715C25.8668 12.2735 25.3334 12.125 24.7945 12.0261C24.2556 11.9271 23.6892 11.8776 23.0953 11.8776C22.2595 11.8776 21.4567 11.9821 20.6868 12.191C19.917 12.4 19.1801 12.6914 18.4763 13.0654ZM18.4763 20.3239V18.0803C19.2021 17.7724 19.9445 17.5414 20.7033 17.3875C21.4622 17.2335 22.2595 17.1565 23.0953 17.1565C23.6672 17.1565 24.2281 17.2005 24.778 17.2885C25.3279 17.3765 25.8668 17.4865 26.3947 17.6184V19.73C25.8668 19.532 25.3334 19.3836 24.7945 19.2846C24.2556 19.1856 23.6892 19.1361 23.0953 19.1361C22.2595 19.1361 21.4567 19.2351 20.6868 19.4331C19.917 19.631 19.1801 19.928 18.4763 20.3239ZM18.4763 16.6946V14.4511C19.2021 14.1431 19.9445 13.9122 20.7033 13.7582C21.4622 13.6042 22.2595 13.5273 23.0953 13.5273C23.6672 13.5273 24.2281 13.5712 24.778 13.6592C25.3279 13.7472 25.8668 13.8572 26.3947 13.9892V16.1007C25.8668 15.9028 25.3334 15.7543 24.7945 15.6553C24.2556 15.5563 23.6892 15.5069 23.0953 15.5069C22.2595 15.5069 21.4567 15.6113 20.6868 15.8203C19.917 16.0293 19.1801 16.3207 18.4763 16.6946ZM8.57829 21.1157C9.61208 21.1157 10.6184 21.2312 11.5972 21.4621C12.576 21.6931 13.5493 22.0395 14.5171 22.5014V9.50207C13.6153 8.97418 12.6585 8.57826 11.6467 8.31431C10.6349 8.05037 9.61208 7.9184 8.57829 7.9184C7.78645 7.9184 7.00011 7.99538 6.21927 8.14935C5.43843 8.30332 4.68508 8.53427 3.95923 8.84221V21.9076C4.72907 21.6436 5.49342 21.4457 6.25226 21.3137C7.01111 21.1817 7.78645 21.1157 8.57829 21.1157ZM17.1566 22.5014C18.1244 22.0395 19.0977 21.6931 20.0765 21.4621C21.0553 21.2312 22.0616 21.1157 23.0953 21.1157C23.8872 21.1157 24.6625 21.1817 25.4214 21.3137C26.1802 21.4457 26.9446 21.6436 27.7144 21.9076V8.84221C26.9886 8.53427 26.2352 8.30332 25.4544 8.14935C24.6735 7.99538 23.8872 7.9184 23.0953 7.9184C22.0616 7.9184 21.0388 8.05037 20.027 8.31431C19.0152 8.57826 18.0584 8.97418 17.1566 9.50207V22.5014ZM15.8368 26.3946C14.781 25.5588 13.6373 24.91 12.4055 24.448C11.1738 23.9861 9.89802 23.7552 8.57829 23.7552C7.65448 23.7552 6.74716 23.8762 5.85634 24.1181C4.96552 24.3601 4.1132 24.701 3.29936 25.1409C2.83746 25.3829 2.39205 25.3719 1.96313 25.1079C1.53422 24.844 1.31976 24.459 1.31976 23.9531V8.05037C1.31976 7.80842 1.38025 7.57746 1.50123 7.35751C1.6222 7.13755 1.80367 6.97259 2.04562 6.86261C3.05741 6.33472 4.1132 5.9388 5.21297 5.67485C6.31275 5.4109 7.43452 5.27893 8.57829 5.27893C9.85403 5.27893 11.1023 5.4439 12.323 5.77383C13.5438 6.10376 14.715 6.59866 15.8368 7.25853C16.9586 6.59866 18.1299 6.10376 19.3506 5.77383C20.5714 5.4439 21.8196 5.27893 23.0953 5.27893C24.2391 5.27893 25.3609 5.4109 26.4607 5.67485C27.5604 5.9388 28.6162 6.33472 29.628 6.86261C29.87 6.97259 30.0514 7.13755 30.1724 7.35751C30.2934 7.57746 30.3539 7.80842 30.3539 8.05037V23.9531C30.3539 24.459 30.1394 24.844 29.7105 25.1079C29.2816 25.3719 28.8362 25.3829 28.3743 25.1409C27.5604 24.701 26.7081 24.3601 25.8173 24.1181C24.9265 23.8762 24.0192 23.7552 23.0953 23.7552C21.7756 23.7552 20.4999 23.9861 19.2681 24.448C18.0364 24.91 16.8926 25.5588 15.8368 26.3946Z" fill="#6755A7"/>
</g>
</svg>
