<svg width="35" height="35" viewBox="0 0 35 35" fill="none" xmlns="http://www.w3.org/2000/svg">
<mask id="mask0_6_166" style="mask-type:alpha" maskUnits="userSpaceOnUse" x="0" y="0" width="35" height="35">
<rect width="35" height="35" fill="#D9D9D9"/>
</mask>
<g mask="url(#mask0_6_166)">
<path d="M17.5 32.0833C15.6771 32.0833 13.9696 31.737 12.3776 31.0443C10.7856 30.3515 9.40014 29.4158 8.22132 28.237C7.04251 27.0581 6.10674 25.6727 5.41403 24.0807C4.72132 22.4887 4.37497 20.7812 4.37497 18.9583C4.37497 17.1354 4.72132 15.4279 5.41403 13.8359C6.10674 12.2439 7.04251 10.8585 8.22132 9.67967C9.40014 8.50085 10.7856 7.56508 12.3776 6.87238C13.9696 6.17967 15.6771 5.83331 17.5 5.83331C19.3229 5.83331 21.0304 6.17967 22.6224 6.87238C24.2144 7.56508 25.5998 8.50085 26.7786 9.67967C27.9574 10.8585 28.8932 12.2439 29.5859 13.8359C30.2786 15.4279 30.625 17.1354 30.625 18.9583C30.625 20.7812 30.2786 22.4887 29.5859 24.0807C28.8932 25.6727 27.9574 27.0581 26.7786 28.237C25.5998 29.4158 24.2144 30.3515 22.6224 31.0443C21.0304 31.737 19.3229 32.0833 17.5 32.0833ZM21.5833 25.0833L23.625 23.0416L18.9583 18.375V11.6666H16.0416V19.5416L21.5833 25.0833ZM8.16664 3.42706L10.2083 5.46873L4.01039 11.6666L1.96872 9.62498L8.16664 3.42706ZM26.8333 3.42706L33.0312 9.62498L30.9896 11.6666L24.7916 5.46873L26.8333 3.42706ZM17.5 29.1666C20.3437 29.1666 22.7561 28.1762 24.737 26.1953C26.7179 24.2144 27.7083 21.8021 27.7083 18.9583C27.7083 16.1146 26.7179 13.7022 24.737 11.7213C22.7561 9.74043 20.3437 8.74998 17.5 8.74998C14.6562 8.74998 12.2439 9.74043 10.263 11.7213C8.28209 13.7022 7.29164 16.1146 7.29164 18.9583C7.29164 21.8021 8.28209 24.2144 10.263 26.1953C12.2439 28.1762 14.6562 29.1666 17.5 29.1666Z" fill="#6755A7"/>
</g>
</svg>
